<svg viewBox="0 0 48 48" fill="none" xmlns="http://www.w3.org/2000/svg">
<path d="M24 4C12.9469 4 4 12.9451 4 24C4 35.0531 12.9451 44 24 44C27.8834 44 31.6889 42.8597 34.92 40.7562C35.8881 40.126 36.0994 38.7975 35.3677 37.9036L34.547 36.901C33.9284 36.1452 32.839 35.9601 32.0169 36.4873C29.6387 38.0127 26.8479 38.8387 24 38.8387C15.8179 38.8387 9.16129 32.1821 9.16129 24C9.16129 15.8179 15.8179 9.16129 24 9.16129C32.0757 9.16129 38.8387 13.808 38.8387 22.0645C38.8387 25.1924 37.1377 28.4953 34.1476 28.8139C32.7485 28.7773 32.7839 27.7771 33.0608 26.3927L34.9506 16.6257C35.1817 15.4315 34.2668 14.3226 33.0504 14.3226H29.4229C29.1551 14.3226 28.8966 14.4212 28.6968 14.5996C28.497 14.7779 28.3699 15.0236 28.3397 15.2898L28.3389 15.2972C27.1536 13.8535 25.0769 13.5411 23.5025 13.5411C17.488 13.5411 12.3871 18.56 12.3871 25.7556C12.3871 31.022 15.3536 34.2935 20.129 34.2935C22.3052 34.2935 24.7556 33.0325 26.1767 31.2022C26.9446 33.9525 29.4519 33.9524 31.8791 33.9524C40.662 33.9524 44 28.1773 44 22.0645C44 11.0688 35.1309 4 24 4ZM22.2516 28.5508C20.4573 28.5508 19.3427 27.2909 19.3427 25.2628C19.3427 21.6344 21.8249 19.3976 24.071 19.3976C25.8687 19.3976 26.942 20.6267 26.942 22.6855C26.942 26.3194 24.2102 28.5508 22.2516 28.5508Z" fill="currentColor"/>
</svg>
