<svg viewBox="0 0 48 48" fill="none" xmlns="http://www.w3.org/2000/svg">
<path d="M30.0982 28.9937C30.0982 32.7804 26.5518 32.6929 26.1768 32.6929H18.9545V25.3991H26.1768C29.9768 25.3991 30.0982 28.2473 30.0982 28.9937ZM25.6205 22.4643C25.6804 22.4643 29.0527 22.5536 29.0527 19.2223C29.0527 17.8366 28.7393 16.0196 25.6205 16.0196H18.9545V22.4643H25.6205ZM44 10.667V37.333C43.9948 39.0996 43.2907 40.7924 42.0416 42.0416C40.7924 43.2907 39.0996 43.9948 37.333 44H10.667C8.90037 43.9948 7.20761 43.2907 5.95843 42.0416C4.70926 40.7924 4.00518 39.0996 4 37.333V10.667C4.00518 8.90037 4.70926 7.20761 5.95843 5.95843C7.20761 4.70926 8.90037 4.00518 10.667 4H37.333C39.0996 4.00518 40.7924 4.70926 42.0416 5.95843C43.2907 7.20761 43.9948 8.90037 44 10.667ZM34.183 29.5232C34.183 27.5973 33.5893 24.3188 29.8036 23.5098V23.4446C31.8491 22.5714 33.1375 20.9223 33.1375 18.4768C33.1375 17.8518 33.3161 12.6929 26.2089 12.6929H14.8696V36.0259C26.3188 36.0259 27.358 36.1759 29.4768 35.5161C30.7455 35.1214 34.183 33.9107 34.183 29.5232Z" fill="currentColor"/>
</svg>