<svg version="1.0" xmlns="http://www.w3.org/2000/svg"
 width="48px" height="48px" viewBox="0 0 413.000000 413.000000"
 preserveAspectRatio="xMidYMid meet">
<g transform="translate(0.000000,413.000000) scale(0.100000,-0.100000)"
fill="currentColor" stroke="none">
<path d="M1782 4027 c-22 -23 -22 -28 -22 -353 0 -330 0 -331 23 -351 33 -30
54 -34 92 -19 52 22 57 53 53 396 l-3 298 -24 26 c-32 34 -88 36 -119 3z"/>
<path d="M1013 3708 c-30 -34 -34 -55 -19 -91 7 -18 112 -130 233 -249 207
-205 222 -218 257 -218 48 0 86 36 86 82 0 29 -24 56 -233 265 -216 217 -235
233 -268 233 -24 0 -42 -7 -56 -22z"/>
<path d="M2348 3503 c-234 -233 -252 -258 -227 -305 18 -34 40 -47 79 -48 32
0 52 17 267 233 209 209 233 236 233 265 0 46 -38 82 -87 82 -35 0 -49 -12
-265 -227z"/>
<path d="M1771 3119 c-45 -14 -103 -53 -130 -90 -51 -69 -51 -62 -51 -785 0
-410 -4 -674 -9 -674 -5 0 -13 10 -17 22 -19 62 -105 198 -157 251 -161 162
-430 183 -524 41 -57 -88 -27 -233 88 -414 26 -41 86 -158 134 -260 187 -398
445 -908 487 -965 65 -87 130 -148 201 -186 l62 -34 354 -3 c393 -3 422 0 533
55 155 78 268 244 325 478 l26 110 4 499 c4 499 4 499 -18 560 -16 43 -38 76
-74 111 -58 59 -103 82 -185 97 -57 11 -59 12 -69 52 -6 23 -25 63 -43 91 -54
80 -126 126 -242 151 -36 9 -40 12 -57 69 -34 111 -146 208 -258 224 l-46 6
-5 200 c-5 182 -8 205 -29 253 -51 114 -181 175 -300 141z m120 -178 l24 -19
5 -569 5 -568 85 0 85 0 3 288 2 288 23 -7 c60 -18 96 -45 116 -87 20 -41 21
-59 21 -345 l0 -302 85 0 85 0 0 214 c0 126 4 217 10 221 12 7 78 -20 104 -43
10 -9 27 -35 37 -57 16 -35 19 -68 19 -273 l0 -233 83 3 82 3 3 159 3 158 31
-6 c43 -9 97 -52 114 -92 11 -27 14 -117 14 -456 0 -464 -7 -556 -51 -695 -51
-158 -118 -251 -217 -300 l-57 -28 -335 -3 c-233 -2 -347 0 -374 8 -52 16
-136 97 -191 185 -44 71 -284 553 -450 905 -48 102 -109 221 -137 264 -53 83
-98 182 -98 215 0 44 84 54 174 20 78 -29 126 -88 220 -269 84 -163 109 -190
174 -190 62 0 139 54 161 113 8 19 11 263 11 748 l0 720 26 24 c32 30 73 32
105 6z"/>
<path d="M697 2940 c-49 -38 -43 -106 12 -135 43 -22 627 -23 670 0 49 25 57
90 16 130 l-24 25 -324 0 c-308 0 -326 -1 -350 -20z"/>
<path d="M2286 2934 c-35 -36 -34 -77 3 -115 l29 -29 322 0 322 0 29 29 c36
36 37 70 3 110 l-26 31 -328 0 -327 0 -27 -26z"/>
</g>
</svg>
