<svg viewBox="0 0 48 48" fill="none" xmlns="http://www.w3.org/2000/svg">
<path d="M43.7704 26.5064L38.741 35.1283C38.3496 35.7993 37.7892 36.356 37.1156 36.7429C36.442 37.1298 35.6788 37.3333 34.902 37.3333H7.12674C5.84042 37.3333 5.03896 35.938 5.68708 34.8269L10.7165 26.205C11.1079 25.534 11.6684 24.9773 12.342 24.5905C13.0155 24.2036 13.7788 24 14.5556 24H42.3308C43.6172 24 44.4186 25.3953 43.7704 26.5064ZM14.5556 21.7778H37.3333V18.4444C37.3333 16.6035 35.841 15.1111 34 15.1111H22.8889L18.4444 10.6667H7.33333C5.49236 10.6667 4 12.159 4 14V33.3087L8.79702 25.0853C9.98708 23.0451 12.1937 21.7778 14.5556 21.7778Z" fill="currentColor"/>
</svg>
