<svg viewBox="0 0 48 48" fill="none" xmlns="http://www.w3.org/2000/svg">
<path d="M17.379 35.9029C17.379 36.0642 17.1935 36.1932 16.9597 36.1932C16.6935 36.2174 16.5081 36.0884 16.5081 35.9029C16.5081 35.7416 16.6935 35.6126 16.9274 35.6126C17.1694 35.5884 17.379 35.7174 17.379 35.9029ZM14.871 35.54C14.8145 35.7013 14.9758 35.8868 15.2177 35.9352C15.4274 36.0158 15.6694 35.9352 15.7177 35.7739C15.7661 35.6126 15.6129 35.4271 15.371 35.3545C15.1613 35.2981 14.9274 35.3787 14.871 35.54ZM18.4355 35.4029C18.2016 35.4594 18.0403 35.6126 18.0645 35.7981C18.0887 35.9594 18.2984 36.0642 18.5403 36.0078C18.7742 35.9513 18.9355 35.7981 18.9113 35.6368C18.8871 35.4836 18.6694 35.3787 18.4355 35.4029ZM23.7419 4.49969C12.5565 4.49969 4 12.9916 4 24.1771C4 33.1207 9.62903 40.7739 17.6694 43.4674C18.7016 43.6529 19.0645 43.0158 19.0645 42.4916C19.0645 41.9916 19.0403 39.2336 19.0403 37.54C19.0403 37.54 13.3952 38.7497 12.2097 35.1368C12.2097 35.1368 11.2903 32.79 9.96774 32.1852C9.96774 32.1852 8.12097 30.9191 10.0968 30.9432C10.0968 30.9432 12.1048 31.1045 13.2097 33.0239C14.9758 36.1368 17.9355 35.2416 19.0887 34.7094C19.2742 33.4191 19.7984 32.5239 20.379 31.9916C15.871 31.4916 11.3226 30.8384 11.3226 23.0803C11.3226 20.8626 11.9355 19.7497 13.2258 18.3303C13.0161 17.8061 12.3306 15.6449 13.4355 12.8545C15.121 12.3303 19 15.032 19 15.032C20.6129 14.5803 22.3468 14.3465 24.0645 14.3465C25.7823 14.3465 27.5161 14.5803 29.129 15.032C29.129 15.032 33.0081 12.3223 34.6935 12.8545C35.7984 15.6529 35.1129 17.8061 34.9032 18.3303C36.1936 19.7578 36.9839 20.8707 36.9839 23.0803C36.9839 30.8626 32.2339 31.4836 27.7258 31.9916C28.4677 32.6287 29.0968 33.8384 29.0968 35.7336C29.0968 38.4513 29.0726 41.8142 29.0726 42.4755C29.0726 42.9997 29.4435 43.6368 30.4677 43.4513C38.5323 40.7739 44 33.1207 44 24.1771C44 12.9916 34.9274 4.49969 23.7419 4.49969ZM11.8387 32.3142C11.7339 32.3949 11.7581 32.5803 11.8952 32.7336C12.0242 32.8626 12.2097 32.9191 12.3145 32.8142C12.4194 32.7336 12.3952 32.5481 12.2581 32.3949C12.129 32.2658 11.9435 32.2094 11.8387 32.3142ZM10.9677 31.661C10.9113 31.7658 10.9919 31.8949 11.1532 31.9755C11.2823 32.0561 11.4435 32.032 11.5 31.9191C11.5565 31.8142 11.4758 31.6852 11.3145 31.6045C11.1532 31.5561 11.0242 31.5803 10.9677 31.661ZM13.5806 34.532C13.4516 34.6368 13.5 34.8787 13.6855 35.032C13.871 35.2174 14.1048 35.2416 14.2097 35.1126C14.3145 35.0078 14.2661 34.7658 14.1048 34.6126C13.9274 34.4271 13.6855 34.4029 13.5806 34.532ZM12.6613 33.3465C12.5323 33.4271 12.5323 33.6368 12.6613 33.8223C12.7903 34.0078 13.0081 34.0884 13.1129 34.0078C13.2419 33.9029 13.2419 33.6932 13.1129 33.5078C13 33.3223 12.7903 33.2416 12.6613 33.3465Z" fill="currentColor"/>
</svg>
