<svg viewBox="0 0 48 48" fill="none" xmlns="http://www.w3.org/2000/svg">
<path d="M24.0045 13.7468C18.3291 13.7468 13.7513 18.3246 13.7513 24C13.7513 29.6754 18.3291 34.2532 24.0045 34.2532C29.6799 34.2532 34.2577 29.6754 34.2577 24C34.2577 18.3246 29.6799 13.7468 24.0045 13.7468ZM24.0045 30.6659C20.3369 30.6659 17.3385 27.6765 17.3385 24C17.3385 20.3235 20.3279 17.3341 24.0045 17.3341C27.681 17.3341 30.6704 20.3235 30.6704 24C30.6704 27.6765 27.6721 30.6659 24.0045 30.6659ZM37.0686 13.3274C37.0686 14.657 35.9978 15.7189 34.6771 15.7189C33.3475 15.7189 32.2856 14.6481 32.2856 13.3274C32.2856 12.0067 33.3564 10.9359 34.6771 10.9359C35.9978 10.9359 37.0686 12.0067 37.0686 13.3274ZM43.8595 15.7546C43.7078 12.551 42.976 9.71332 40.6291 7.37534C38.2911 5.03736 35.4534 4.30563 32.2499 4.145C28.9481 3.95761 19.0519 3.95761 15.7501 4.145C12.5555 4.2967 9.71779 5.02844 7.37089 7.36642C5.02398 9.7044 4.30117 12.5421 4.14055 15.7457C3.95315 19.0474 3.95315 28.9437 4.14055 32.2454C4.29225 35.449 5.02398 38.2867 7.37089 40.6246C9.71779 42.9626 12.5466 43.6944 15.7501 43.855C19.0519 44.0424 28.9481 44.0424 32.2499 43.855C35.4534 43.7033 38.2911 42.9715 40.6291 40.6246C42.9671 38.2867 43.6988 35.449 43.8595 32.2454C44.0468 28.9437 44.0468 19.0563 43.8595 15.7546ZM39.594 35.7881C38.8979 37.5371 37.5505 38.8845 35.7925 39.5895C33.1601 40.6336 26.9136 40.3926 24.0045 40.3926C21.0954 40.3926 14.8399 40.6246 12.2164 39.5895C10.4674 38.8935 9.11991 37.546 8.41495 35.7881C7.37089 33.1556 7.61182 26.9091 7.61182 24C7.61182 21.0909 7.37981 14.8355 8.41495 12.2119C9.11099 10.4629 10.4584 9.11544 12.2164 8.41048C14.8489 7.36642 21.0954 7.60736 24.0045 7.60736C26.9136 7.60736 33.169 7.37534 35.7925 8.41048C37.5416 9.10652 38.889 10.454 39.594 12.2119C40.638 14.8444 40.3971 21.0909 40.3971 24C40.3971 26.9091 40.638 33.1645 39.594 35.7881Z" fill="currentColor"/>
</svg>
