<svg viewBox="0 0 48 48" fill="none" xmlns="http://www.w3.org/2000/svg">
<path d="M4 4V44H44V4H4ZM25.7679 35.1964C25.7679 39.0893 23.4821 40.8661 20.1518 40.8661C17.1429 40.8661 15.4018 39.3125 14.5089 37.4286L17.5714 35.5804C18.1607 36.625 18.6964 37.5089 19.9911 37.5089C21.2232 37.5089 22.0089 37.0268 22.0089 35.1429V22.3661H25.7679V35.1964ZM34.6607 40.8661C31.1696 40.8661 28.9107 39.2054 27.8125 37.0268L30.875 35.2589C31.6786 36.5714 32.7321 37.5446 34.5804 37.5446C36.1339 37.5446 37.1339 36.7679 37.1339 35.6875C37.1339 34.4018 36.1161 33.9464 34.3929 33.1875L33.4554 32.7857C30.7411 31.6339 28.9464 30.1786 28.9464 27.1161C28.9464 24.2946 31.0982 22.1518 34.4464 22.1518C36.8393 22.1518 38.5536 22.9821 39.7857 25.1607L36.8571 27.0357C36.2143 25.8839 35.5179 25.4286 34.4375 25.4286C33.3393 25.4286 32.6429 26.125 32.6429 27.0357C32.6429 28.1607 33.3393 28.6161 34.9554 29.3214L35.8929 29.7232C39.0893 31.0893 40.8839 32.4911 40.8839 35.6339C40.8839 39.0089 38.2232 40.8661 34.6607 40.8661Z" fill="currentColor"/>
</svg>
