<svg viewBox="0 0 48 48" fill="none" xmlns="http://www.w3.org/2000/svg">
<path d="M24 10.2501C19.864 10.2501 16.4999 13.6143 16.4999 17.7503C16.4999 18.4409 17.0593 19.0003 17.7499 19.0003C18.4405 19.0003 18.9999 18.4409 18.9999 17.7503C18.9999 14.9924 21.2437 12.7502 24 12.7502C24.6907 12.7502 25.25 12.1908 25.25 11.5001C25.25 10.8095 24.6907 10.2501 24 10.2501ZM17.7546 39.8734C17.7546 40.1195 17.8272 40.3593 17.964 40.564L19.8788 43.4422C20.1109 43.7906 20.5015 44 20.9195 44H27.0798C27.4985 44 27.8892 43.7906 28.1204 43.4422L30.0353 40.564C30.1712 40.3593 30.2439 40.1187 30.2447 39.8734L30.2486 36.4999H17.7515L17.7546 39.8734ZM24 4C16.0092 4 10.2498 10.4822 10.2498 17.7503C10.2498 21.2167 11.5349 24.3793 13.6529 26.7958C14.953 28.2794 16.9921 31.3896 17.7483 33.9959V34.0006H21.4984V33.9912C21.4976 33.6185 21.4422 33.2482 21.3304 32.892C20.8937 31.5005 19.5476 27.8317 16.4733 24.3238C14.8686 22.4933 14.0108 20.1714 14.0037 17.7503C13.9881 11.997 18.6655 7.75007 24 7.75007C29.5142 7.75007 34.0002 12.2361 34.0002 17.7503C34.0002 20.1698 33.1221 22.5043 31.5275 24.3238C28.472 27.8091 27.1196 31.4701 26.6759 32.8756C26.5613 33.2369 26.5028 33.6137 26.5024 33.9928V34.0006H30.2525V33.9967C31.0088 31.3896 33.0479 28.2794 34.3479 26.7965C36.4651 24.3793 37.7503 21.2167 37.7503 17.7503C37.7503 10.1564 31.5939 4 24 4Z" fill="currentColor"/>
</svg>
