<svg viewBox="0 0 48 48" fill="none" xmlns="http://www.w3.org/2000/svg">
<path d="M12.9536 43.9996H4.66071V17.2942H12.9536V43.9996ZM8.80268 13.6513C6.15089 13.6513 4 11.4549 4 8.80313C4 7.52938 4.506 6.3078 5.40667 5.40712C6.30735 4.50645 7.52893 4.00045 8.80268 4.00045C10.0764 4.00045 11.298 4.50645 12.1987 5.40712C13.0994 6.3078 13.6054 7.52938 13.6054 8.80313C13.6054 11.4549 11.4536 13.6513 8.80268 13.6513ZM43.9911 43.9996H35.7161V30.9996C35.7161 27.9013 35.6536 23.9281 31.4045 23.9281C27.0929 23.9281 26.4321 27.2942 26.4321 30.7763V43.9996H18.1482V17.2942H26.1018V20.9371H26.2179C27.325 18.8388 30.0295 16.6246 34.0643 16.6246C42.4571 16.6246 44 22.1513 44 29.3299V43.9996H43.9911Z" fill="currentColor"/>
</svg>
