<svg width="61" height="64" viewBox="0 0 61 64" fill="none" xmlns="http://www.w3.org/2000/svg">
<path d="M3.8147e-06 3L20.5809 26.243L20.5809 39.6839L8.87197 26.4605V63H1.40785e-05L3.8147e-06 3Z" fill="white"/>
<path d="M40.8902 25.7027H43.8566L41.1727 40.027H38.2063L40.8902 25.7027Z" fill="white"/>
<g filter="url(#filter0_d_624_125)">
<path d="M45.1488 43.3356L54.3498 33L45.1488 22.6644L47.9732 19.4547L60 33L47.9732 46.5453L45.1488 43.3356Z" fill="url(#paint0_linear_624_125)"/>
<path d="M47.1113 9.56575L41.2816 3L14.6217 32.9475L41.2816 63L47.1113 56.4343L26.4834 33L47.1113 9.56575Z" fill="url(#paint1_linear_624_125)"/>
</g>
<defs>
<filter id="filter0_d_624_125" x="11.6217" y="0" filterUnits="userSpaceOnUse" color-interpolation-filters="sRGB">
<feFlood flood-opacity="0" result="BackgroundImageFix"/>
<feColorMatrix in="SourceAlpha" type="matrix" values="0 0 0 0 0 0 0 0 0 0 0 0 0 0 0 0 0 0 127 0" result="hardAlpha"/>
<feOffset dx="-1" dy="-1"/>
<feGaussianBlur stdDeviation="1"/>
<feComposite in2="hardAlpha" operator="out"/>
<feColorMatrix type="matrix" values="0 0 0 0 0.0705882 0 0 0 0 0.0705882 0 0 0 0 0.0784314 0 0 0 0.3 0"/>
<feBlend mode="normal" in2="BackgroundImageFix" result="effect1_dropShadow_624_125"/>
<feBlend mode="normal" in="SourceGraphic" in2="effect1_dropShadow_624_125" result="shape"/>
</filter>
<linearGradient id="paint0_linear_624_125" x1="30.8782" y1="3" x2="30.8782" y2="63" gradientUnits="userSpaceOnUse">
<stop stop-color="#2086B7"/>
<stop offset="1" stop-color="#0D597D"/>
</linearGradient>
<linearGradient id="paint1_linear_624_125" x1="30.8782" y1="3" x2="30.8782" y2="63" gradientUnits="userSpaceOnUse">
<stop stop-color="#2086B7"/>
<stop offset="1" stop-color="#0D597D"/>
</linearGradient>
</defs>
</svg>
