<svg viewBox="0 0 29 48" fill="none" xmlns="http://www.w3.org/2000/svg">
<rect x="13.5" y="9" width="2" height="12" rx="1" fill="currentColor"/>
<path d="M27 14.5V33.5H29V14.5H27ZM2 33.5V14.5H0V33.5H2ZM14.5 46C7.59644 46 2 40.4036 2 33.5H0C0 41.5081 6.49187 48 14.5 48V46ZM27 33.5C27 40.4036 21.4036 46 14.5 46V48C22.5081 48 29 41.5081 29 33.5H27ZM14.5 2C21.4036 2 27 7.59644 27 14.5H29C29 6.49187 22.5081 0 14.5 0V2ZM14.5 0C6.49187 0 0 6.49187 0 14.5H2C2 7.59644 7.59644 2 14.5 2V0Z" fill="currentColor"/></svg>