<svg viewBox="0 0 48 48" fill="none" xmlns="http://www.w3.org/2000/svg">
<path d="M42.8593 32.2654L34.1091 28.5153C33.7353 28.356 33.3199 28.3225 32.9254 28.4197C32.5308 28.5169 32.1786 28.7397 31.9216 29.0544L28.0465 33.7889C21.965 30.9215 17.0707 26.0272 14.2033 19.9457L18.9378 16.0706C19.2531 15.8141 19.4764 15.4618 19.5736 15.0671C19.6709 14.6724 19.6369 14.2567 19.4768 13.8831L15.7268 5.13291C15.5511 4.73009 15.2403 4.40121 14.8481 4.20297C14.4559 4.00472 14.0068 3.94955 13.5783 4.04695L5.45315 5.92198C5.03999 6.01739 4.67138 6.25002 4.40746 6.5819C4.14354 6.91379 3.9999 7.32533 4 7.74936C4 27.7888 20.2425 44 40.2506 44C40.6748 44.0003 41.0865 43.8567 41.4186 43.5928C41.7506 43.3288 41.9833 42.9601 42.0788 42.5468L43.9538 34.4217C44.0506 33.9911 43.9942 33.5402 43.7945 33.1466C43.5947 32.7531 43.264 32.4415 42.8593 32.2654Z" fill="currentColor"/>
</svg>
