<svg viewBox="0 0 48 48" fill="none" xmlns="http://www.w3.org/2000/svg">
<path d="M22.865 31.6811C22.8462 31.7186 22.8275 31.7486 22.865 31.6811V31.6811ZM38.4358 26.2435C37.1787 26.2431 35.9384 26.5318 34.8108 27.0873C34.442 26.3435 34.0608 25.6935 33.9983 25.206C33.9233 24.6373 33.842 24.2998 33.9295 23.6248C34.017 22.9497 34.4108 21.9935 34.4045 21.9247C34.3983 21.856 34.317 21.5122 33.5107 21.506C32.7045 21.4997 32.0107 21.6622 31.9301 21.8747C31.7877 22.2631 31.6769 22.6623 31.5988 23.0685C31.4551 23.7998 29.987 26.4123 29.1557 27.7748C28.8807 27.2435 28.6494 26.7748 28.5994 26.3998C28.5244 25.831 28.4432 25.4935 28.5307 24.8185C28.6182 24.1435 29.0119 23.1872 29.0057 23.1185C28.9994 23.0497 28.9182 22.706 28.1126 22.6997C27.3069 22.6935 26.6125 22.856 26.5313 23.0685C26.45 23.281 26.3625 23.781 26.2 24.2623C26.0375 24.7435 24.0819 29.0936 23.57 30.2248C23.3075 30.7998 23.0825 31.2623 22.92 31.5748C22.895 31.6248 22.8762 31.6561 22.8637 31.6811C22.8825 31.6498 22.895 31.6186 22.895 31.6311C22.7575 31.8998 22.6762 32.0498 22.6762 32.0498V32.0561C22.57 32.2561 22.4512 32.4374 22.395 32.4374C22.3575 32.4374 22.2762 31.9123 22.4137 31.1936C22.7075 29.6811 23.4013 27.331 23.395 27.2498C23.3888 27.206 23.5263 26.7998 22.9387 26.581C22.37 26.3748 22.1637 26.7185 22.1137 26.7185C22.0637 26.7185 22.0262 26.8435 22.0262 26.8435C22.0262 26.8435 22.6575 24.1935 20.8143 24.1935C19.6643 24.1935 18.0643 25.456 17.2781 26.5998C16.7843 26.8685 15.7155 27.4498 14.5905 28.0686C14.1593 28.3061 13.7155 28.5498 13.2968 28.7811C13.2655 28.7498 13.2405 28.7186 13.2093 28.6873C10.9724 26.2998 6.84231 24.6123 7.01731 21.406C7.07981 20.2372 7.48607 17.1684 14.9593 13.4434C21.0844 10.3933 25.9813 11.2309 26.8244 13.0934C28.0369 15.7497 24.2063 20.6935 17.8456 21.406C15.4212 21.6747 14.1468 20.7372 13.828 20.3872C13.4968 20.0185 13.4468 19.9997 13.3218 20.0685C13.1155 20.181 13.2468 20.506 13.3218 20.6997C13.5093 21.1935 14.2905 22.0685 15.6212 22.506C16.7899 22.8872 19.6325 23.0997 23.0694 21.7685C26.9307 20.281 29.9363 16.1372 29.0551 12.6684C28.1576 9.14333 22.3125 7.98707 16.7856 9.94959C13.4924 11.1184 9.9311 12.9559 7.36919 15.3497C4.32603 18.1997 3.83915 20.681 4.03915 21.7185C4.75104 25.3998 9.82485 27.7998 11.8555 29.5748C11.7555 29.6311 11.6617 29.6811 11.5742 29.7311C10.5561 30.2373 6.68793 32.2624 5.7198 34.3999C4.62603 36.8249 5.90105 38.5624 6.73793 38.7999C9.34984 39.5249 12.0242 38.2187 13.4611 36.0749C14.898 33.9311 14.7237 31.1311 14.0611 29.8561C14.0549 29.8373 14.0424 29.8248 14.0361 29.8061C14.2986 29.6498 14.5674 29.4936 14.8362 29.3373C15.3543 29.0311 15.8605 28.7498 16.3043 28.5061C16.0543 29.1811 15.873 29.9936 15.7793 31.1686C15.6668 32.5436 16.2355 34.3249 16.9731 35.0249C17.2981 35.3311 17.6912 35.3374 17.9349 35.3374C18.7975 35.3374 19.185 34.6249 19.6156 33.7749C20.1468 32.7374 20.6156 31.5311 20.6156 31.5311C20.6156 31.5311 20.0281 34.7936 21.6344 34.7936C22.2212 34.7936 22.8087 34.0374 23.0719 33.6499V33.6561C23.0719 33.6561 23.0844 33.6311 23.1156 33.5811C23.1781 33.4874 23.2094 33.4311 23.2094 33.4311V33.4124C23.4469 33.0061 23.9656 32.0748 24.7463 30.5373C25.7588 28.5498 26.7269 26.0685 26.7269 26.0685C26.8205 26.614 26.9499 27.1527 27.1144 27.681C27.2894 28.2748 27.6582 28.9248 27.9519 29.5561C27.7144 29.8811 27.5707 30.0686 27.5707 30.0686C27.5711 30.0734 27.5734 30.0778 27.5769 30.0811C27.3894 30.3311 27.1769 30.5998 26.9582 30.8623C26.1588 31.8123 25.2081 32.8999 25.0831 33.2124C24.9331 33.5811 24.9706 33.8561 25.2582 34.0686C25.4707 34.2311 25.8457 34.2561 26.2388 34.2249C26.9575 34.1749 27.4638 33.9999 27.7076 33.8874C28.1569 33.7262 28.5816 33.5033 28.9694 33.2249C29.7507 32.6499 30.2257 31.8248 30.182 30.7373C30.157 30.1373 29.9632 29.5373 29.7257 28.9748C29.7945 28.8748 29.8695 28.7686 29.9382 28.6623C31.1751 26.856 32.1314 24.8735 32.1314 24.8735C32.2249 25.419 32.3544 25.9576 32.5189 26.486C32.6689 26.9923 32.962 27.5485 33.2307 28.0923C32.0689 29.0361 31.3501 30.1298 31.1001 30.8486C30.6376 32.1798 31.0001 32.7799 31.6814 32.9174C31.9876 32.9799 32.4251 32.8361 32.7501 32.6986C33.2328 32.5378 33.6879 32.3039 34.0995 32.0048C34.8808 31.4298 35.6364 30.6236 35.5864 29.5298C35.5676 29.0361 35.4301 28.5423 35.2489 28.0673C36.2302 27.6548 37.5045 27.4298 39.1296 27.6173C42.6096 28.0236 43.2909 30.1986 43.1596 31.1048C43.0284 32.0111 42.2971 32.5174 42.0533 32.6674C41.8096 32.8174 41.7346 32.8736 41.7533 32.9861C41.7846 33.1486 41.8971 33.1424 42.1034 33.1049C42.3909 33.0549 43.9277 32.3674 43.9965 30.6861C44.0965 28.5611 42.0533 26.2235 38.4339 26.2423L38.4358 26.2435ZM11.6117 35.2874C10.4624 36.5436 8.84983 37.0187 8.1567 36.6187C7.41294 36.1861 7.7067 34.3374 9.12484 32.9986C9.98735 32.1861 11.0992 31.4361 11.8367 30.9736C12.0055 30.8736 12.2492 30.7236 12.5493 30.5423C12.5993 30.5111 12.6243 30.4986 12.6243 30.4986C12.6805 30.4611 12.743 30.4298 12.8055 30.3923C13.3236 32.2923 12.8243 33.9674 11.6117 35.2861V35.2874ZM20.0093 29.5748C19.6093 30.5561 18.7662 33.0561 18.2537 32.9249C17.8162 32.8124 17.5474 30.9061 18.1662 29.0311C18.4787 28.0873 19.1412 26.9623 19.535 26.5248C20.1656 25.8185 20.8593 25.5935 21.0219 25.8748C21.2406 26.2435 20.2593 28.9623 20.0093 29.5748ZM26.9469 32.8874C26.7782 32.9749 26.6219 33.0311 26.5469 32.9874C26.4907 32.9561 26.6157 32.8374 26.6157 32.8374C26.6157 32.8374 27.4844 31.9061 27.8282 31.4811C28.0282 31.2311 28.2594 30.9373 28.5088 30.6123C28.5088 30.6436 28.5151 30.6748 28.5151 30.7123C28.5069 31.8311 27.4326 32.5874 26.945 32.8874H26.9469ZM32.2957 31.6686C32.1707 31.5811 32.1895 31.2873 32.6082 30.3748C32.7707 30.0186 33.1451 29.4186 33.7957 28.8436C33.8694 29.0612 33.9094 29.2888 33.9145 29.5186C33.9083 30.9248 32.902 31.4498 32.2964 31.6686H32.2957Z" fill="currentColor"/>
</svg>
