<svg viewBox="0 0 48 48" fill="none" xmlns="http://www.w3.org/2000/svg">
<path d="M16 24C19.8687 24 23 20.8687 23 17C23 13.1312 19.8687 10 16 10C12.1313 10 9 13.1312 9 17C9 20.8687 12.1313 24 16 24ZM20.8 26H20.2812C18.9812 26.625 17.5375 27 16 27C14.4625 27 13.025 26.625 11.7188 26H11.2C7.225 26 4 29.225 4 33.2V35C4 36.6562 5.34375 38 7 38H25C26.6562 38 28 36.6562 28 35V33.2C28 29.225 24.775 26 20.8 26ZM34 24C37.3125 24 40 21.3125 40 18C40 14.6875 37.3125 12 34 12C30.6875 12 28 14.6875 28 18C28 21.3125 30.6875 24 34 24ZM37 26H36.7625C35.8938 26.3 34.975 26.5 34 26.5C33.025 26.5 32.1062 26.3 31.2375 26H31C29.725 26 28.55 26.3687 27.5187 26.9625C29.0437 28.6062 30 30.7875 30 33.2V35.6C30 35.7375 29.9688 35.8687 29.9625 36H41C42.6562 36 44 34.6562 44 33C44 29.1313 40.8688 26 37 26Z" fill="currentColor"/>
</svg>
