<svg viewBox="0 0 48 48" fill="none" xmlns="http://www.w3.org/2000/svg">
<path d="M38.0089 9.8125C34.2679 6.0625 29.2857 4 23.9911 4C13.0625 4 4.16964 12.8929 4.16964 23.8214C4.16964 27.3125 5.08036 30.7232 6.8125 33.7321L4 44L14.5089 41.2411C17.4018 42.8214 20.6607 43.6518 23.9821 43.6518H23.9911C34.9107 43.6518 44 34.7589 44 23.8304C44 18.5357 41.75 13.5625 38.0089 9.8125ZM23.9911 40.3125C21.0268 40.3125 18.125 39.5179 15.5982 38.0179L15 37.6607L8.76786 39.2946L10.4286 33.2143L10.0357 32.5893C8.38393 29.9643 7.51786 26.9375 7.51786 23.8214C7.51786 14.7411 14.9107 7.34821 24 7.34821C28.4018 7.34821 32.5357 9.0625 35.6429 12.1786C38.75 15.2946 40.6607 19.4286 40.6518 23.8304C40.6518 32.9196 33.0714 40.3125 23.9911 40.3125ZM33.0268 27.9732C32.5357 27.7232 30.0982 26.5268 29.6429 26.3661C29.1875 26.1964 28.8571 26.1161 28.5268 26.6161C28.1964 27.1161 27.25 28.2232 26.9554 28.5625C26.6696 28.8929 26.375 28.9375 25.8839 28.6875C22.9732 27.2321 21.0625 26.0893 19.1429 22.7946C18.6339 21.9196 19.6518 21.9821 20.5982 20.0893C20.7589 19.7589 20.6786 19.4732 20.5536 19.2232C20.4286 18.9732 19.4375 16.5357 19.0268 15.5446C18.625 14.5804 18.2143 14.7143 17.9107 14.6964C17.625 14.6786 17.2946 14.6786 16.9643 14.6786C16.6339 14.6786 16.0982 14.8036 15.6429 15.2946C15.1875 15.7946 13.9107 16.9911 13.9107 19.4286C13.9107 21.8661 15.6875 24.2232 15.9286 24.5536C16.1786 24.8839 19.4196 29.8839 24.3929 32.0357C27.5357 33.3929 28.7679 33.5089 30.3393 33.2768C31.2946 33.1339 33.2679 32.0804 33.6786 30.9196C34.0893 29.7589 34.0893 28.7679 33.9643 28.5625C33.8482 28.3393 33.5179 28.2143 33.0268 27.9732Z" fill="currentColor"/>
</svg>
